<?xml version="1.0" encoding="UTF-8"?>
<svg xmlns="http://www.w3.org/2000/svg" xmlns:xlink="http://www.w3.org/1999/xlink" width="30pt" height="30pt" viewBox="0 0 30 30" version="1.1">
<defs>
<linearGradient id="linear0" gradientUnits="userSpaceOnUse" x1="-597.3553" y1="900.6861" x2="-598.0993" y2="900.0601" gradientTransform="matrix(29.1,0,0,-29.1,17408.8875,26215.8375)">
<stop offset="0" style="stop-color:rgb(71.372549%,31.372549%,61.960784%);stop-opacity:1;"/>
<stop offset="1" style="stop-color:rgb(18.039216%,72.941176%,77.647059%);stop-opacity:1;"/>
</linearGradient>
</defs>
<g id="surface1">
<path style=" stroke:none;fill-rule:nonzero;fill:url(#linear0);" d="M 29.550781 15 C 29.550781 23.035156 23.035156 29.550781 15 29.550781 C 6.964844 29.550781 0.449219 23.035156 0.449219 15 C 0.449219 6.964844 6.964844 0.449219 15 0.449219 C 23.035156 0.449219 29.550781 6.964844 29.550781 15 Z M 29.550781 15 "/>
<path style=" stroke:none;fill-rule:nonzero;fill:rgb(100%,100%,100%);fill-opacity:1;" d="M 21.367188 20.796875 L 16.449219 8.902344 C 16.171875 8.289062 15.757812 7.988281 15.214844 7.988281 L 14.777344 7.988281 C 14.234375 7.988281 13.824219 8.289062 13.546875 8.902344 L 11.402344 14.085938 L 9.785156 14.085938 C 9.300781 14.089844 8.90625 14.480469 8.902344 14.964844 L 8.902344 14.976562 C 8.90625 15.460938 9.300781 15.855469 9.785156 15.859375 L 10.652344 15.859375 L 8.609375 20.796875 C 8.574219 20.90625 8.550781 21.019531 8.550781 21.136719 C 8.550781 21.414062 8.636719 21.628906 8.789062 21.796875 C 8.945312 21.96875 9.164062 22.050781 9.441406 22.050781 C 9.625 22.046875 9.800781 21.988281 9.949219 21.882812 C 10.105469 21.773438 10.214844 21.613281 10.300781 21.433594 L 12.550781 15.855469 L 14.109375 15.855469 C 14.59375 15.851562 14.988281 15.460938 14.992188 14.972656 L 14.992188 14.953125 C 14.988281 14.46875 14.59375 14.074219 14.109375 14.070312 L 13.277344 14.070312 L 14.996094 9.792969 L 19.675781 21.429688 C 19.761719 21.609375 19.871094 21.769531 20.027344 21.878906 C 20.175781 21.984375 20.355469 22.042969 20.535156 22.046875 C 20.8125 22.046875 21.03125 21.964844 21.1875 21.796875 C 21.34375 21.625 21.425781 21.410156 21.425781 21.132812 C 21.429688 21.019531 21.414062 20.902344 21.367188 20.796875 Z M 21.367188 20.796875 "/>
</g>
</svg>
