<svg width="24" height="24" viewBox="0 0 24 24" fill="none" xmlns="http://www.w3.org/2000/svg">
<circle cx="12" cy="12" r="12" fill="#EDF0F4"/>
<path d="M8.38632 11.939C8.35219 12.5321 8.8087 13.0398 9.40174 13.0739C9.42307 13.0739 9.4444 13.0739 9.46574 13.0739C10.063 13.0739 10.5452 12.5918 10.5409 11.9945C10.5409 11.3972 10.0588 10.9151 9.46147 10.9193C8.88976 10.9193 8.41618 11.3673 8.38632 11.939Z" fill="#0033AD"/>
<path d="M4.36727 11.6617C4.17528 11.6489 4.00889 11.7982 4.00036 11.9902C3.99182 12.1822 4.13689 12.3486 4.32888 12.3571C4.52087 12.3699 4.68299 12.2206 4.69579 12.0286C4.70859 11.8366 4.55927 11.6745 4.36727 11.6617Z" fill="#0033AD"/>
<path d="M8.31806 5.6843C8.48872 5.59897 8.55698 5.38565 8.47165 5.21499C8.38632 5.04433 8.173 4.97606 8.00234 5.06139C7.83168 5.14672 7.76342 5.35578 7.84875 5.52644C7.93408 5.70137 8.14313 5.7739 8.31806 5.6843C8.31806 5.6843 8.31379 5.6843 8.31806 5.6843Z" fill="#0033AD"/>
<path d="M9.41025 7.59143C9.67477 7.45917 9.78143 7.13492 9.64917 6.87039C9.51691 6.60587 9.19266 6.49921 8.92813 6.63147C8.66361 6.76373 8.55695 7.08798 8.68921 7.35251C8.82147 7.61703 9.14572 7.72369 9.41025 7.59143Z" fill="#0033AD"/>
<path d="M5.73255 8.90119C5.93734 9.03345 6.21039 8.97799 6.34692 8.77319C6.47918 8.5684 6.42372 8.29535 6.21893 8.15882C6.01414 8.02656 5.74108 8.08203 5.60455 8.28682C5.46803 8.49161 5.52776 8.76893 5.73255 8.90119Z" fill="#0033AD"/>
<path d="M6.38536 11.4697C6.08671 11.4526 5.83499 11.6787 5.81792 11.9774C5.80086 12.276 6.02698 12.5277 6.32563 12.5448C6.62429 12.5619 6.87601 12.3358 6.89307 12.0371C6.91014 11.7427 6.68402 11.4867 6.38536 11.4697Z" fill="#0033AD"/>
<path d="M5.79228 15.0833C5.57469 15.1943 5.4851 15.4588 5.59603 15.6806C5.70695 15.8982 5.97148 15.9878 6.19333 15.8769C6.41092 15.766 6.50052 15.5014 6.38959 15.2796C6.27866 15.062 6.00987 14.9724 5.79228 15.0833Z" fill="#0033AD"/>
<path d="M7.8828 10.3561C8.17719 10.5481 8.5697 10.467 8.75743 10.1726C8.94942 9.87821 8.86835 9.4857 8.57397 9.29797C8.27958 9.10598 7.88707 9.18704 7.69934 9.48143C7.50735 9.77155 7.58841 10.1641 7.8828 10.3561Z" fill="#0033AD"/>
<path d="M14.5172 7.54871C14.7647 7.71084 15.1017 7.64257 15.2638 7.39512C15.426 7.14766 15.3577 6.81061 15.1103 6.64849C14.8628 6.48636 14.5257 6.55462 14.3636 6.80208C14.1972 7.0538 14.2655 7.38659 14.5172 7.54871Z" fill="#0033AD"/>
<path d="M15.618 5.65017C15.7801 5.75683 15.9935 5.7099 16.1001 5.54777C16.2068 5.38565 16.1599 5.17232 15.9977 5.06566C15.8356 4.959 15.6223 5.00593 15.5156 5.16379C15.4132 5.32592 15.4602 5.54351 15.618 5.65017Z" fill="#0033AD"/>
<path d="M14.5982 10.9107C14.0052 10.8766 13.4932 11.3331 13.4633 11.9262C13.4292 12.5192 13.8857 13.0312 14.4788 13.061C14.5001 13.061 14.5214 13.061 14.5385 13.061C15.1315 13.061 15.6136 12.5789 15.6136 11.9816C15.6179 11.4142 15.1699 10.9406 14.5982 10.9107Z" fill="#0033AD"/>
<path d="M9.76437 10.2793C9.94783 10.642 10.319 10.8723 10.7286 10.8723C11.3216 10.8723 11.8037 10.3902 11.8037 9.79292C11.8037 9.62653 11.7653 9.46014 11.6886 9.30655C11.4198 8.77324 10.7713 8.55991 10.2422 8.8287C9.70891 9.10176 9.49558 9.75026 9.76437 10.2793Z" fill="#0033AD"/>
<path d="M18.2077 8.90123C18.4253 8.7903 18.5106 8.52151 18.3997 8.30392C18.2888 8.08633 18.02 8.001 17.8024 8.11193C17.5848 8.22286 17.4995 8.48738 17.6061 8.70497C17.7213 8.92256 17.9858 9.01216 18.2077 8.90123Z" fill="#0033AD"/>
<path d="M15.4772 9.2426C15.1658 9.40046 15.0378 9.78018 15.1956 10.0916C15.3535 10.4031 15.7332 10.5311 16.0447 10.3732C16.3561 10.2154 16.4841 9.83564 16.3263 9.52419C16.1684 9.21274 15.7887 9.08901 15.4772 9.2426Z" fill="#0033AD"/>
<path d="M11.9573 5.48803C12.2005 5.50083 12.4096 5.31311 12.4266 5.06992C12.4437 4.82673 12.2517 4.61767 12.0085 4.60061C11.7653 4.58781 11.5563 4.77127 11.5392 5.01445C11.5264 5.26191 11.7141 5.47097 11.9573 5.48803Z" fill="#0033AD"/>
<path d="M11.9531 8.27407C12.3029 8.29541 12.6016 8.02662 12.6186 7.67677C12.64 7.32692 12.3712 7.02826 12.0213 7.0112C11.6715 6.98986 11.3728 7.25865 11.3558 7.6085C11.3387 7.95835 11.6032 8.25701 11.9531 8.27407Z" fill="#0033AD"/>
<path d="M8.52282 14.742C8.83428 14.5842 8.96227 14.2045 8.80441 13.893C8.64655 13.5816 8.26683 13.4536 7.95538 13.6114C7.64393 13.7693 7.51594 14.149 7.67379 14.4604C7.83165 14.7719 8.21137 14.8999 8.52282 14.742Z" fill="#0033AD"/>
<path d="M12.3627 9.19988C12.0384 9.69906 12.175 10.3646 12.6741 10.6889C13.1733 11.0131 13.8389 10.8766 14.1631 10.3774C14.4874 9.87825 14.3509 9.21268 13.8517 8.88843C13.6768 8.77323 13.472 8.7135 13.2629 8.7135C12.9003 8.7135 12.5632 8.89696 12.3627 9.19988Z" fill="#0033AD"/>
<path d="M14.2357 13.7053C13.9669 13.172 13.3184 12.9587 12.7893 13.2275C12.256 13.4963 12.0427 14.1448 12.3115 14.6738C12.5803 15.2071 13.2288 15.4205 13.7578 15.1517C14.2869 14.8872 14.5045 14.2472 14.2399 13.7139C14.2399 13.7096 14.2399 13.7096 14.2357 13.7053Z" fill="#0033AD"/>
<path d="M16.1172 13.6285C15.8228 13.4365 15.4303 13.5176 15.2426 13.812C15.0506 14.1064 15.1316 14.4989 15.426 14.6866C15.7204 14.8786 16.1129 14.7976 16.3006 14.5032C16.4926 14.213 16.4116 13.8205 16.1172 13.6285Z" fill="#0033AD"/>
<path d="M18.1821 12.0115C18.1992 11.7128 17.9731 11.4611 17.6744 11.444C17.3758 11.427 17.1241 11.6531 17.107 11.9517C17.0899 12.2504 17.316 12.5021 17.6147 12.5192C17.9091 12.5362 18.1651 12.3058 18.1821 12.0115Z" fill="#0033AD"/>
<path d="M19.6711 11.6275C19.4791 11.6147 19.3127 11.764 19.3042 11.956C19.2957 12.148 19.4407 12.3144 19.6327 12.3229C19.8247 12.3357 19.9868 12.1864 19.9996 11.9944C20.0082 11.8024 19.8631 11.6403 19.6711 11.6275Z" fill="#0033AD"/>
<path d="M18.2675 15.0834C18.0627 14.9511 17.7896 15.0066 17.6531 15.2114C17.5208 15.4162 17.5763 15.6892 17.7811 15.8257C17.9859 15.958 18.2589 15.9025 18.3955 15.6978C18.532 15.493 18.4722 15.2156 18.2675 15.0834Z" fill="#0033AD"/>
<path d="M8.37773 18.3345C8.2156 18.2278 8.00228 18.2747 7.89562 18.4326C7.78896 18.5947 7.83589 18.808 7.99375 18.9147C8.15587 19.0214 8.3692 18.9744 8.47586 18.8166C8.58679 18.6587 8.53986 18.4411 8.37773 18.3345Z" fill="#0033AD"/>
<path d="M15.682 18.3003C15.5114 18.3857 15.4431 18.599 15.5284 18.7697C15.6138 18.9403 15.8271 19.0086 15.9977 18.9232C16.1684 18.8379 16.2367 18.6289 16.1513 18.4582C16.066 18.2833 15.857 18.2107 15.682 18.3003C15.682 18.3003 15.6863 18.3003 15.682 18.3003Z" fill="#0033AD"/>
<path d="M11.6373 14.7847C11.9616 14.2855 11.825 13.6199 11.3258 13.2914C10.8267 12.9671 10.1611 13.1037 9.83258 13.6028C9.50406 14.102 9.64485 14.7676 10.144 15.0961C10.319 15.2113 10.5237 15.271 10.7328 15.271C11.0997 15.2753 11.4368 15.0918 11.6373 14.7847Z" fill="#0033AD"/>
<path d="M9.48277 16.4358C9.23531 16.2737 8.89826 16.342 8.73613 16.5894C8.57401 16.8369 8.64227 17.1739 8.88973 17.3361C9.13718 17.4982 9.47423 17.4299 9.63636 17.1825C9.80275 16.935 9.73449 16.598 9.48277 16.4358Z" fill="#0033AD"/>
<path d="M11.9958 18.4966C11.7526 18.4838 11.5435 18.6715 11.5264 18.9147C11.5094 19.1579 11.7014 19.367 11.9446 19.384C12.1878 19.3968 12.3968 19.2134 12.4139 18.9702C12.4267 18.7227 12.2389 18.5137 11.9958 18.4966Z" fill="#0033AD"/>
<path d="M12 15.7105C11.6502 15.6892 11.3515 15.958 11.3344 16.3078C11.3131 16.6577 11.5819 16.9563 11.9317 16.9734C12.2816 16.9905 12.5802 16.726 12.5973 16.3761C12.6186 16.0305 12.3499 15.7276 12 15.7105Z" fill="#0033AD"/>
<path d="M14.5897 16.3931C14.3252 16.5296 14.2185 16.8539 14.3551 17.1184C14.4916 17.3829 14.8158 17.4896 15.0804 17.3531C15.3449 17.2208 15.4515 16.8966 15.3193 16.632C15.1828 16.3675 14.8585 16.2566 14.5897 16.3931Z" fill="#0033AD"/>
</svg>
