<svg width="24" height="24" viewBox="0 0 24 24" fill="none" xmlns="http://www.w3.org/2000/svg">
<path d="M23.6383 14.9029C22.0356 21.3315 15.5244 25.2438 9.09503 23.6407C2.66833 22.0381 -1.24401 15.5265 0.359382 9.09837C1.96137 2.66903 8.47253 -1.24361 14.8999 0.359081C21.3289 1.96177 25.241 8.47405 23.6381 14.903L23.6382 14.9029H23.6383Z" fill="#F7931A"/>
<path fill-rule="evenodd" clip-rule="evenodd" d="M17.2902 10.2903C17.529 8.6934 16.3132 7.83498 14.6507 7.26233L15.1901 5.09914L13.8732 4.77103L13.3482 6.87726C13.002 6.79093 12.6465 6.70957 12.2932 6.62892L12.822 4.50878L11.5061 4.18066L10.9664 6.34315C10.68 6.27793 10.3986 6.21347 10.1256 6.14555L10.1271 6.13874L8.31124 5.68528L7.96095 7.09171C7.96095 7.09171 8.9379 7.31565 8.91732 7.32944C9.45055 7.46252 9.54698 7.81551 9.53096 8.09529L8.91661 10.5597C8.95333 10.569 9.00096 10.5825 9.05351 10.6036L9.01524 10.5941L9.01521 10.5941C8.98274 10.5859 8.94898 10.5775 8.91433 10.5692L8.05321 14.0214C7.98805 14.1834 7.82264 14.4266 7.44983 14.3342C7.46303 14.3534 6.49276 14.0954 6.49276 14.0954L5.83899 15.6027L7.55259 16.0299C7.74025 16.077 7.92568 16.1253 8.10924 16.1731L8.10926 16.1732C8.23753 16.2066 8.36488 16.2398 8.49142 16.2721L7.94652 18.4601L9.2618 18.7883L9.80142 16.6235C10.1607 16.721 10.5094 16.811 10.8508 16.8958L10.313 19.0504L11.6299 19.3785L12.1747 17.1946C14.4201 17.6196 16.1085 17.4482 16.8192 15.4172C17.3918 13.7821 16.7907 12.8389 15.6094 12.2238C16.4698 12.0254 17.1179 11.4595 17.2907 10.2905L17.2902 10.2902L17.2902 10.2903ZM14.2816 14.5092C13.9082 16.0094 11.5599 15.3892 10.4855 15.1054C10.3889 15.0799 10.3025 15.0571 10.2289 15.0388L10.952 12.14C11.0417 12.1625 11.1515 12.1871 11.2757 12.215C12.3871 12.4644 14.6641 12.9754 14.2816 14.5092H14.2816ZM11.4987 10.8696C12.3945 11.1086 14.3485 11.6301 14.6888 10.2666H14.689C15.0365 8.87208 13.1374 8.45164 12.2099 8.2463C12.1056 8.2232 12.0136 8.20282 11.9384 8.18408L11.2828 10.8131C11.3447 10.8285 11.4173 10.8479 11.4987 10.8696Z" fill="white"/>
</svg>
