<?xml version="1.0" encoding="UTF-8"?>
<svg xmlns="http://www.w3.org/2000/svg" xmlns:xlink="http://www.w3.org/1999/xlink" width="30pt" height="30pt" viewBox="0 0 30 30" version="1.1">
<g id="surface1">
<path style=" stroke:none;fill-rule:nonzero;fill:rgb(2.745098%,3.921569%,5.490196%);fill-opacity:1;" d="M 15 30 C 23.285156 30 30 23.285156 30 15 C 30 6.714844 23.285156 0 15 0 C 6.714844 0 0 6.714844 0 15 C 0 23.285156 6.714844 30 15 30 Z M 15 30 "/>
<path style=" stroke:none;fill-rule:evenodd;fill:rgb(0%,82.745098%,58.431373%);fill-opacity:1;" d="M 8.664062 20.03125 C 8.21875 19.753906 7.941406 19.265625 7.941406 18.742188 L 7.941406 15.8125 C 7.941406 15.464844 8.226562 15.179688 8.574219 15.183594 C 8.683594 15.183594 8.792969 15.214844 8.890625 15.269531 L 15.503906 19.125 C 15.890625 19.351562 16.128906 19.765625 16.128906 20.210938 L 16.128906 23.25 C 16.132812 23.664062 15.792969 24.003906 15.375 24.003906 C 15.238281 24.003906 15.097656 23.964844 14.980469 23.894531 Z M 18.523438 14.464844 C 18.910156 14.691406 19.148438 15.105469 19.148438 15.554688 L 19.148438 21.714844 C 19.148438 21.898438 19.050781 22.066406 18.890625 22.152344 L 17.445312 22.96875 C 17.425781 22.976562 17.40625 22.984375 17.386719 22.992188 L 17.386719 19.570312 C 17.386719 19.128906 17.152344 18.71875 16.773438 18.488281 L 10.964844 15.015625 L 10.964844 11.152344 C 10.964844 10.804688 11.25 10.523438 11.597656 10.523438 C 11.707031 10.523438 11.816406 10.554688 11.914062 10.609375 Z M 21.417969 9.914062 C 21.808594 10.140625 22.046875 10.554688 22.046875 11.003906 L 22.046875 20.003906 C 22.042969 20.1875 21.941406 20.359375 21.78125 20.445312 L 20.40625 21.1875 L 20.40625 14.921875 C 20.40625 14.480469 20.175781 14.070312 19.796875 13.84375 L 13.859375 10.28125 L 13.859375 6.617188 C 13.859375 6.507812 13.890625 6.398438 13.945312 6.300781 C 14.121094 6 14.503906 5.898438 14.804688 6.074219 Z M 21.417969 9.914062 "/>
</g>
</svg>
