<?xml version="1.0" encoding="UTF-8"?>
<svg xmlns="http://www.w3.org/2000/svg" xmlns:xlink="http://www.w3.org/1999/xlink" width="30pt" height="40pt" viewBox="0 0 30 40" version="1.1">
<g id="surface1">
<path style=" stroke:none;fill-rule:nonzero;fill:rgb(11.764706%,11.764706%,11.764706%);fill-opacity:1;" d="M 15.203125 0.00390625 C 6.820312 0.0351562 0.0351562 6.800781 0 15.152344 C 0 16.828125 0.269531 18.488281 0.800781 20.074219 C 1.199219 21.15625 2.371094 21.738281 3.476562 21.402344 C 4.542969 20.996094 5.109375 19.832031 4.769531 18.746094 C 4.316406 17.511719 4.117188 16.199219 4.175781 14.886719 C 4.359375 8.851562 9.414062 4.109375 15.46875 4.289062 C 21.519531 4.472656 26.28125 9.511719 26.097656 15.542969 C 25.925781 21.191406 21.464844 25.78125 15.800781 26.121094 C 15.800781 26.121094 13.667969 26.253906 12.605469 26.382812 C 12.214844 26.4375 11.828125 26.515625 11.445312 26.613281 C 11.390625 26.667969 11.300781 26.667969 11.246094 26.613281 C 11.207031 26.5625 11.207031 26.492188 11.246094 26.441406 L 11.574219 24.644531 L 13.578125 15.664062 C 13.820312 14.542969 13.101562 13.4375 11.976562 13.199219 C 10.851562 12.957031 9.742188 13.671875 9.503906 14.792969 C 9.503906 14.792969 4.738281 36.78125 4.738281 36.980469 C 4.464844 38.050781 5.113281 39.136719 6.183594 39.410156 C 6.195312 39.410156 6.210938 39.414062 6.21875 39.417969 L 6.332031 39.417969 C 7.402344 39.691406 8.496094 39.050781 8.769531 37.984375 C 8.777344 37.964844 8.78125 37.949219 8.785156 37.929688 C 8.78125 37.894531 8.78125 37.863281 8.785156 37.832031 C 8.84375 37.570312 9.445312 34.644531 9.445312 34.644531 C 9.898438 32.4375 11.683594 30.746094 13.921875 30.402344 C 14.378906 30.332031 16.3125 30.203125 16.3125 30.203125 C 24.664062 29.375 30.757812 21.957031 29.921875 13.632812 C 29.164062 6.042969 22.855469 0.203125 15.203125 0.00390625 Z M 15.203125 0.00390625 "/>
<path style=" stroke:none;fill-rule:nonzero;fill:rgb(90.196078%,0%,47.843137%);fill-opacity:1;" d="M 16.121094 34.9375 C 14.753906 34.652344 13.410156 35.527344 13.125 36.894531 C 13.125 36.90625 13.121094 36.917969 13.117188 36.933594 C 12.820312 38.289062 13.683594 39.628906 15.046875 39.925781 C 15.050781 39.925781 15.050781 39.925781 15.050781 39.925781 L 15.121094 39.925781 C 16.457031 40.246094 17.796875 39.429688 18.117188 38.101562 C 18.121094 38.09375 18.125 38.082031 18.128906 38.070312 L 18.128906 37.933594 C 18.363281 36.5625 17.484375 35.246094 16.121094 34.9375 Z M 16.121094 34.9375 "/>
</g>
</svg>
