<?xml version="1.0" encoding="utf-8"?>
<!-- Generator: Adobe Illustrator 27.7.0, SVG Export Plug-In . SVG Version: 6.00 Build 0)  -->
<svg version="1.1" id="Layer_1" xmlns:xodm="http://www.corel.com/coreldraw/odm/2003"
	 xmlns="http://www.w3.org/2000/svg" xmlns:xlink="http://www.w3.org/1999/xlink" x="0px" y="0px" viewBox="0 0 2570.3 2570.3"
	 style="enable-background:new 0 0 2570.3 2570.3;" xml:space="preserve">
<style type="text/css">
	.st0{fill:#FFFFFF;stroke:#000000;stroke-miterlimit:10;}
	.st1{fill-rule:evenodd;clip-rule:evenodd;fill:#F6921D;}
	.st2{fill-rule:evenodd;clip-rule:evenodd;fill:#FFFFFF;}
</style>
<circle class="st0" cx="1288.9" cy="1286.6" r="1284.9"/>
<g id="Layer_x0020_1">
	<g id="_2167059903536">
		<path class="st1" d="M1285.1,2535.1c-36,0-72-2-107-5l10-81l-89-11l-10,81c-79-12-155-32-228-59l31-76l-83-34l-31,76
			c-72-32-141-71-205-116l49-65l-72-54l-49,65c-61-50-118-105-169-165l64-50l-56-71l-64,50c-46-63-87-131-121-203l75-32l-35-83
			l-75,32c-28-73-50-149-64-227l81-12l-13-89l-81,12c-5-44-7-90-7-135c0-34,1-67,4-101l81,9l10-89l-81-9c12-79,31-155,58-229l76,30
			l33-84l-76-30c32-73,70-141,115-206l65,49l54-72l-65-48c49-62,104-118,164-170l51,64l70-56l-51-64c63-47,131-87,202-122l33,75
			l82-36l-33-75c81-32,165-55,253-70l10,81l89-12l-10-81c38-3,76-5,115-5c41,0,81,2,121,6l-11,81l89,12l11-81c79,13,155,34,228,61
			l-31,75l83,34l31-75c72,33,140,73,204,118l-50,65l71,55l50-65c61,50,117,106,167,167l-65,50l55,71l65-50c46,64,85,132,118,204
			l-75,31l35,83l75-31c27,73,48,149,61,228l-81,11l12,89l81-11c4,40,6,81,6,122c0,38-2,76-5,114l-81-10l-11,89l81,10
			c-13,79-33,155-60,228l-76-31l-34,83l76,31c-33,72-72,141-117,205l-65-49l-54,72l65,49c-50,61-105,117-166,168l-50-64l-71,55
			l50,64c-64,46-132,86-203,119l-32-75l-83,35l32,75c-73,28-149,49-227,63l-11-81l-89,12l11,81c-42,4-85,7-129,7L1285.1,2535.1z"/>
		<circle class="st2" cx="1285.1" cy="1285.1" r="1052"/>
		<circle class="st1" cx="1285.1" cy="1285.1" r="959"/>
		<g>
			<path class="st2" d="M1221.1,1382.1v-304l-306,130c0,0-35-38,17-69l506-303v450c0,0,417-201,454-216s36-8,36,6c0,15-19,62-55,82
				c-35,19-274,145-274,145s-145,79-161,98c-10,12,20,409-58,531c-157,246-502,247-581-29c-81-282,239-402,425-522h-5L1221.1,1382.1
				z M1225.1,1517.1c0,0,3,132,0,184c-6,104-84,250-189,237c-59-7-125-90-63-210C1014.1,1650.1,1052.1,1617.1,1225.1,1517.1z
				 M1282.1,740.1c-79,0-143-64-143-143s64-143,143-143s143,64,143,143S1361.1,740.1,1282.1,740.1z"/>
		</g>
	</g>
</g>
</svg>
