<?xml version="1.0" encoding="UTF-8"?>
<svg xmlns="http://www.w3.org/2000/svg" xmlns:xlink="http://www.w3.org/1999/xlink" width="29pt" height="27pt" viewBox="0 0 29 27" version="1.1">
<g id="surface1">
<path style=" stroke:none;fill-rule:nonzero;fill:rgb(18.039216%,60.392157%,81.568627%);fill-opacity:1;" d="M 17.578125 26.160156 L 9.605469 26.160156 L 3.175781 21.300781 L 0.722656 13.453125 L 3.167969 5.605469 L 9.601562 0.746094 L 17.578125 0.746094 L 24.011719 5.605469 L 26.457031 13.453125 L 24.011719 21.300781 L 23.921875 21.394531 Z M 9.785156 25.597656 L 17.398438 25.597656 L 23.5625 20.925781 L 25.921875 13.453125 L 23.5625 5.980469 L 17.398438 1.3125 L 9.785156 1.3125 L 3.628906 5.980469 L 1.269531 13.453125 L 3.628906 20.925781 Z M 9.785156 25.597656 "/>
<path style=" stroke:none;fill-rule:nonzero;fill:rgb(18.039216%,60.392157%,81.568627%);fill-opacity:1;" d="M 27.371094 24.851562 L 23.652344 21.394531 L 20.027344 19.992188 L 13.59375 20.835938 L 7.070312 19.992188 L 3.441406 21.394531 L 3.265625 20.835938 L 6.976562 19.339844 L 7.070312 19.339844 L 13.59375 20.273438 L 20.121094 19.339844 L 20.210938 19.433594 L 24.015625 20.925781 L 27.730469 24.476562 Z M 27.371094 24.851562 "/>
<path style=" stroke:none;fill-rule:nonzero;fill:rgb(18.039216%,60.392157%,81.568627%);fill-opacity:1;" d="M 17.398438 26.4375 L 13.59375 21.019531 L 9.605469 26.4375 L 6.707031 19.808594 L 7.25 19.523438 L 9.785156 25.320312 L 13.59375 19.992188 L 17.308594 25.320312 L 19.847656 19.523438 L 23.289062 12.425781 L 24.105469 21.113281 L 23.5625 21.113281 L 22.925781 14.480469 L 20.390625 19.808594 Z M 17.398438 26.4375 "/>
<path style=" stroke:none;fill-rule:nonzero;fill:rgb(18.039216%,60.392157%,81.568627%);fill-opacity:1;" d="M 1.085938 13.171875 L 26.277344 13.171875 L 26.277344 13.730469 L 1.085938 13.730469 Z M 1.085938 13.171875 "/>
<path style=" stroke:none;fill-rule:nonzero;fill:rgb(18.039216%,60.392157%,81.568627%);fill-opacity:1;" d="M 23.289062 14.480469 L 20.121094 8.035156 L 17.398438 14.105469 L 13.59375 7.101562 L 9.695312 14.105469 L 6.976562 8.035156 L 3.808594 14.480469 L 3.078125 5.886719 L 3.628906 5.796875 L 4.171875 12.519531 L 6.976562 6.824219 L 9.695312 12.894531 L 13.59375 5.980469 L 17.308594 12.894531 L 20.121094 6.824219 L 22.925781 12.425781 L 23.378906 5.796875 L 23.925781 5.796875 Z M 23.289062 14.480469 "/>
<path style=" stroke:none;fill-rule:nonzero;fill:rgb(18.039216%,60.392157%,81.568627%);fill-opacity:1;" d="M 19.847656 7.566406 L 17.308594 1.679688 L 13.59375 7.101562 L 9.785156 1.679688 L 7.25 7.566406 L 6.796875 7.289062 L 9.605469 0.5625 L 13.59375 6.074219 L 17.398438 0.5625 L 20.390625 7.289062 Z M 23.5625 21.113281 L 22.925781 14.480469 L 20.121094 20.273438 L 17.308594 14.105469 L 13.59375 21.113281 L 9.695312 14.105469 L 6.976562 20.273438 L 4.171875 14.480469 L 3.628906 21.113281 L 3.078125 21.113281 L 3.808594 12.425781 L 6.976562 18.964844 L 9.695312 12.894531 L 13.59375 19.898438 L 17.398438 12.894531 L 20.121094 19.058594 L 23.289062 12.425781 L 24.105469 21.113281 Z M 23.5625 21.113281 "/>
<path style=" stroke:none;fill-rule:nonzero;fill:rgb(18.039216%,60.392157%,81.568627%);fill-opacity:1;" d="M 20.121094 7.757812 L 13.503906 6.824219 L 6.976562 7.757812 L 3.265625 6.074219 L 3.441406 5.511719 L 7.070312 7.101562 L 13.503906 6.261719 L 20.121094 7.101562 L 23.652344 5.511719 L 23.925781 6.074219 Z M 20.121094 7.757812 "/>
<path style=" stroke:none;fill-rule:nonzero;fill:rgb(18.039216%,60.392157%,81.568627%);fill-opacity:1;" d="M 10.78125 25.878906 C 10.78125 26.496094 10.296875 27 9.695312 27 C 9.097656 27 8.609375 26.496094 8.609375 25.878906 C 8.609375 25.261719 9.097656 24.757812 9.695312 24.757812 C 10.296875 24.757812 10.78125 25.261719 10.78125 25.878906 Z M 10.78125 25.878906 "/>
<path style=" stroke:none;fill-rule:nonzero;fill:rgb(18.039216%,60.392157%,81.568627%);fill-opacity:1;" d="M 18.398438 25.878906 C 18.398438 26.496094 17.910156 27 17.308594 27 C 16.710938 27 16.222656 26.496094 16.222656 25.878906 C 16.222656 25.261719 16.710938 24.757812 17.308594 24.757812 C 17.910156 24.757812 18.398438 25.261719 18.398438 25.878906 Z M 18.398438 25.878906 "/>
<path style=" stroke:none;fill-rule:nonzero;fill:rgb(18.039216%,60.392157%,81.568627%);fill-opacity:1;" d="M 10.78125 1.121094 C 10.78125 1.738281 10.296875 2.242188 9.695312 2.242188 C 9.097656 2.242188 8.609375 1.738281 8.609375 1.121094 C 8.609375 0.503906 9.097656 0 9.695312 0 C 10.296875 0 10.78125 0.503906 10.78125 1.121094 Z M 10.78125 1.121094 "/>
<path style=" stroke:none;fill-rule:nonzero;fill:rgb(18.039216%,60.392157%,81.568627%);fill-opacity:1;" d="M 18.398438 1.121094 C 18.398438 1.738281 17.910156 2.242188 17.308594 2.242188 C 16.710938 2.242188 16.222656 1.738281 16.222656 1.121094 C 16.222656 0.503906 16.710938 0 17.308594 0 C 17.910156 0 18.398438 0.503906 18.398438 1.121094 Z M 18.398438 1.121094 "/>
<path style=" stroke:none;fill-rule:nonzero;fill:rgb(18.039216%,60.392157%,81.568627%);fill-opacity:1;" d="M 24.738281 5.796875 C 24.738281 6.414062 24.253906 6.914062 23.652344 6.914062 C 23.054688 6.914062 22.566406 6.414062 22.566406 5.796875 C 22.566406 5.175781 23.054688 4.675781 23.652344 4.675781 C 24.253906 4.675781 24.738281 5.175781 24.738281 5.796875 Z M 24.738281 5.796875 "/>
<path style=" stroke:none;fill-rule:nonzero;fill:rgb(18.039216%,60.392157%,81.568627%);fill-opacity:1;" d="M 4.441406 5.796875 C 4.441406 6.414062 3.953125 6.914062 3.351562 6.914062 C 2.753906 6.914062 2.265625 6.414062 2.265625 5.796875 C 2.265625 5.175781 2.753906 4.675781 3.351562 4.675781 C 3.953125 4.675781 4.441406 5.175781 4.441406 5.796875 Z M 4.441406 5.796875 "/>
<path style=" stroke:none;fill-rule:nonzero;fill:rgb(18.039216%,60.392157%,81.568627%);fill-opacity:1;" d="M 4.441406 21.210938 C 4.441406 21.828125 3.953125 22.328125 3.351562 22.328125 C 2.753906 22.328125 2.265625 21.828125 2.265625 21.210938 C 2.265625 20.589844 2.753906 20.089844 3.351562 20.089844 C 3.953125 20.089844 4.441406 20.589844 4.441406 21.210938 Z M 4.441406 21.210938 "/>
<path style=" stroke:none;fill-rule:nonzero;fill:rgb(18.039216%,60.392157%,81.568627%);fill-opacity:1;" d="M 2.171875 13.453125 C 2.171875 14.070312 1.6875 14.574219 1.085938 14.574219 C 0.484375 14.574219 0 14.070312 0 13.453125 C 0 12.835938 0.484375 12.335938 1.085938 12.335938 C 1.6875 12.335938 2.171875 12.835938 2.171875 13.453125 Z M 2.171875 13.453125 "/>
<path style=" stroke:none;fill-rule:nonzero;fill:rgb(18.039216%,60.392157%,81.568627%);fill-opacity:1;" d="M 27.277344 13.453125 C 27.277344 14.070312 26.789062 14.574219 26.191406 14.574219 C 25.589844 14.574219 25.101562 14.070312 25.101562 13.453125 C 25.101562 12.835938 25.589844 12.335938 26.191406 12.335938 C 26.789062 12.335938 27.277344 12.835938 27.277344 13.453125 Z M 27.277344 13.453125 "/>
<path style=" stroke:none;fill-rule:nonzero;fill:rgb(18.039216%,60.392157%,81.568627%);fill-opacity:1;" d="M 24.195312 13.453125 C 24.195312 14.070312 23.710938 14.574219 23.109375 14.574219 C 22.511719 14.574219 22.023438 14.070312 22.023438 13.453125 C 22.023438 12.835938 22.511719 12.335938 23.109375 12.335938 C 23.710938 12.335938 24.195312 12.835938 24.195312 13.453125 Z M 24.195312 13.453125 "/>
<path style=" stroke:none;fill-rule:nonzero;fill:rgb(18.039216%,60.392157%,81.568627%);fill-opacity:1;" d="M 5.074219 13.453125 C 5.074219 14.070312 4.585938 14.574219 3.984375 14.574219 C 3.386719 14.574219 2.898438 14.070312 2.898438 13.453125 C 2.898438 12.835938 3.386719 12.335938 3.984375 12.335938 C 4.585938 12.335938 5.074219 12.835938 5.074219 13.453125 Z M 5.074219 13.453125 "/>
<path style=" stroke:none;fill-rule:nonzero;fill:rgb(18.039216%,60.392157%,81.568627%);fill-opacity:1;" d="M 10.78125 13.453125 C 10.78125 14.070312 10.296875 14.574219 9.695312 14.574219 C 9.097656 14.574219 8.609375 14.070312 8.609375 13.453125 C 8.609375 12.835938 9.097656 12.335938 9.695312 12.335938 C 10.296875 12.335938 10.78125 12.835938 10.78125 13.453125 Z M 10.78125 13.453125 "/>
<path style=" stroke:none;fill-rule:nonzero;fill:rgb(18.039216%,60.392157%,81.568627%);fill-opacity:1;" d="M 18.398438 13.453125 C 18.398438 14.070312 17.910156 14.574219 17.308594 14.574219 C 16.710938 14.574219 16.222656 14.070312 16.222656 13.453125 C 16.222656 12.835938 16.710938 12.335938 17.308594 12.335938 C 17.910156 12.335938 18.398438 12.835938 18.398438 13.453125 Z M 18.398438 13.453125 "/>
<path style=" stroke:none;fill-rule:nonzero;fill:rgb(18.039216%,60.392157%,81.568627%);fill-opacity:1;" d="M 13.765625 5.4375 C 13.175781 5.335938 12.617188 5.75 12.519531 6.363281 C 12.425781 6.972656 12.828125 7.546875 13.417969 7.648438 C 14.011719 7.746094 14.570312 7.332031 14.664062 6.722656 C 14.761719 6.109375 14.359375 5.535156 13.765625 5.4375 Z M 13.765625 5.4375 "/>
<path style=" stroke:none;fill-rule:nonzero;fill:rgb(18.039216%,60.392157%,81.568627%);fill-opacity:1;" d="M 8.0625 7.476562 C 8.0625 8.09375 7.574219 8.59375 6.976562 8.59375 C 6.375 8.59375 5.890625 8.09375 5.890625 7.476562 C 5.890625 6.855469 6.375 6.355469 6.976562 6.355469 C 7.574219 6.355469 8.0625 6.855469 8.0625 7.476562 Z M 8.0625 7.476562 "/>
<path style=" stroke:none;fill-rule:nonzero;fill:rgb(18.039216%,60.392157%,81.568627%);fill-opacity:1;" d="M 21.207031 7.476562 C 21.207031 8.09375 20.71875 8.59375 20.121094 8.59375 C 19.519531 8.59375 19.035156 8.09375 19.035156 7.476562 C 19.035156 6.855469 19.519531 6.355469 20.121094 6.355469 C 20.71875 6.355469 21.207031 6.855469 21.207031 7.476562 Z M 21.207031 7.476562 "/>
<path style=" stroke:none;fill-rule:nonzero;fill:rgb(18.039216%,60.392157%,81.568627%);fill-opacity:1;" d="M 14.679688 20.550781 C 14.679688 21.171875 14.191406 21.671875 13.59375 21.671875 C 12.992188 21.671875 12.507812 21.171875 12.507812 20.550781 C 12.507812 19.933594 12.992188 19.433594 13.59375 19.433594 C 14.191406 19.433594 14.679688 19.933594 14.679688 20.550781 Z M 14.679688 20.550781 "/>
<path style=" stroke:none;fill-rule:nonzero;fill:rgb(18.039216%,60.392157%,81.568627%);fill-opacity:1;" d="M 8.0625 19.617188 C 8.0625 20.234375 7.574219 20.738281 6.976562 20.738281 C 6.375 20.738281 5.890625 20.234375 5.890625 19.617188 C 5.890625 19 6.375 18.496094 6.976562 18.496094 C 7.574219 18.496094 8.0625 19 8.0625 19.617188 Z M 8.0625 19.617188 "/>
<path style=" stroke:none;fill-rule:nonzero;fill:rgb(18.039216%,60.392157%,81.568627%);fill-opacity:1;" d="M 21.207031 19.617188 C 21.207031 20.234375 20.71875 20.738281 20.121094 20.738281 C 19.519531 20.738281 19.035156 20.234375 19.035156 19.617188 C 19.035156 19 19.519531 18.496094 20.121094 18.496094 C 20.71875 18.496094 21.207031 19 21.207031 19.617188 Z M 21.207031 19.617188 "/>
<path style=" stroke:none;fill-rule:nonzero;fill:rgb(18.039216%,60.392157%,81.568627%);fill-opacity:1;" d="M 29 24.667969 C 29 25.492188 28.351562 26.160156 27.550781 26.160156 C 26.75 26.160156 26.101562 25.492188 26.101562 24.667969 C 26.101562 23.839844 26.75 23.171875 27.550781 23.171875 C 28.351562 23.171875 29 23.839844 29 24.667969 Z M 29 24.667969 "/>
</g>
</svg>
