<svg width="24" height="24" viewBox="0 0 24 24" fill="none" xmlns="http://www.w3.org/2000/svg">
<path fill-rule="evenodd" clip-rule="evenodd" d="M12 24C5.4 24 0 18.6001 0 11.9402C0.06 5.34038 5.4 -0.0595036 12.06 0.000495204C18.66 0.060494 24 5.40038 24 12.1202C23.94 18.6601 18.6 24 12 24Z" fill="#E42D04"/>
<path fill-rule="evenodd" clip-rule="evenodd" d="M12.2338 20.8C13.1048 20.8 15.339 20.4074 17.3082 18.8368C19.5725 17.0307 19.7859 16.0235 19.9235 15.374C19.9355 15.3175 19.9468 15.2637 19.959 15.2123C19.982 15.1149 19.9954 14.9828 20 14.8257C19.5244 14.7487 18.8577 14.7046 18.0797 14.797C16.8073 14.948 15.8076 15.8164 15.4668 16.2317C15.2774 15.2878 14.3534 13.4 12.1722 13.4C9.99094 13.4 8.81449 15.2878 8.49891 16.2317C8.29694 15.8793 7.54461 15.099 6.15104 14.797C5.28938 14.6102 4.53776 14.7025 4 14.8596C4.04246 15.5615 4.27316 16.3101 4.88718 17.1C5.94372 18.4592 7.58307 19.2985 8.31447 19.673C8.39573 19.7146 8.46579 19.7504 8.52259 19.7806C9.09063 20.0827 10.6433 20.8 12.2338 20.8Z" fill="white"/>
<path fill-rule="evenodd" clip-rule="evenodd" d="M19.9982 14.7981C19.5228 14.7213 18.8566 14.6774 18.079 14.7694C16.8074 14.92 15.8082 15.7859 15.4676 16.2C15.2784 15.2588 14.3549 13.3765 12.1749 13.3765C9.99495 13.3765 8.81917 15.2588 8.50378 16.2C8.30193 15.8486 7.55004 15.0706 6.15727 14.7694C5.29612 14.5832 4.54494 14.6752 4.00749 14.832C3.96879 14.1937 4.08654 13.5943 4.2129 13.0377C4.42484 12.104 4.95722 10.8667 5.19692 10.3647C4.98245 9.85022 4.4854 8.39202 4.2129 6.67532C3.9404 4.95861 4.40214 3.80159 4.66706 3.43767C5.09599 3.55061 6.12039 3.9045 6.78649 4.4165C7.4526 4.9285 8.47699 6.06041 8.90592 6.56238C9.46101 6.41179 10.8891 6.11061 12.1608 6.11061C13.4324 6.11061 14.6587 6.41179 15.1128 6.56238C15.4913 6.11061 16.4223 5.04897 17.1187 4.4165C17.8151 3.78402 18.9479 3.47532 19.4274 3.40002C19.5535 3.56316 19.821 4.04002 19.8815 4.64238C19.9572 5.39532 19.7302 6.9765 19.4274 8.03061C19.1852 8.87391 18.8722 9.86277 18.7461 10.2518C18.8092 10.3898 19.0262 10.8391 19.3895 11.5318C19.7748 12.2664 20.0238 13.922 19.9982 14.7981Z" fill="#FFAA35"/>
<path d="M13.7875 18.1484C13.6975 18.2688 13.6 18.4996 13.5625 18.6V18.5623L13.45 17.6591C13.2375 17.6842 12.685 17.7344 12.175 17.7344C11.665 17.7344 11.0625 17.6842 10.825 17.6591L10.7875 18.5623C10.7625 18.5247 10.6975 18.4193 10.6375 18.2989C10.5625 18.1484 10.3 17.9226 10.3 17.8097C10.3 17.7194 10.175 17.5212 10.1125 17.4333L10 17.2828H10.675L10.825 17.3957C10.95 17.3831 11.2675 17.3731 11.5375 17.4333C11.8075 17.4936 11.975 17.2577 12.025 17.1323V16.5301C11.9125 16.4549 11.635 16.2818 11.425 16.1914C11.1625 16.0785 10.9 15.6269 10.975 15.1753C11.05 14.7237 11.275 14.5732 11.425 14.6108C11.575 14.6485 12.55 14.5732 12.7 14.6108C12.85 14.6485 13.1125 14.7237 13.225 14.9119C13.3375 15.1001 13.2625 15.8527 13.0375 16.1162C12.8575 16.3269 12.5125 16.4799 12.3625 16.5301V17.1323C12.3625 17.2075 12.625 17.3957 12.6625 17.4333C12.7 17.471 13.2625 17.4333 13.375 17.4333C13.465 17.4333 13.5375 17.3581 13.5625 17.3204H14.2V17.471C14.2 17.5462 14.0875 17.8849 14.05 17.9226C14.0125 17.9602 13.9 17.9978 13.7875 18.1484Z" fill="black"/>
<path d="M12.581 17.9L12.2 18.2001L11.8953 17.9L11.6286 18.0334L11.4 17.8H13L12.7715 18.0667L12.581 17.9Z" fill="black"/>
<path d="M8.48102 11.7462C8.03471 11.5616 7.55121 11.4385 7.36525 11.4C7.31566 11.4256 7.21648 11.5077 7.21648 11.6308C7.21648 11.7846 7.17929 11.9385 7.21648 12.2462C7.25367 12.5539 7.55121 12.7462 8.07191 12.9769C8.5926 13.2077 9.48522 13.4 10.1175 13.4C10.7498 13.4 10.1547 12.7462 9.93153 12.5923C9.70837 12.4385 9.03891 11.9769 8.48102 11.7462Z" fill="black"/>
<path d="M9.09189 10.7255C8.75836 10.7851 8.29596 10.8 8.10645 10.8C7.91695 10.7752 7.51519 10.6584 7.42423 10.39C7.31052 10.0545 7.61374 9.68168 7.99275 9.49529C8.37176 9.3089 8.86448 9.38346 9.16769 9.83079C9.4709 10.2781 9.5088 10.6509 9.09189 10.7255Z" fill="white"/>
<path d="M15.9189 11.5462C16.3652 11.3616 16.8487 11.2385 17.0347 11.2001C17.0843 11.2257 17.1835 11.3078 17.1835 11.4308C17.1835 11.5847 17.2207 11.7385 17.1835 12.0462C17.1463 12.3539 16.8487 12.5462 16.328 12.777C15.8073 13.0078 14.9147 13.2001 14.2825 13.2001C13.6502 13.2001 14.2453 12.5462 14.4684 12.3924C14.6916 12.2385 15.361 11.777 15.9189 11.5462Z" fill="black"/>
<path d="M14.7082 10.7255C15.0417 10.7851 15.5041 10.8 15.6936 10.8C15.8831 10.7752 16.2849 10.6584 16.3758 10.39C16.4895 10.0545 16.1863 9.68168 15.8073 9.49529C15.4283 9.3089 14.9356 9.38346 14.6324 9.83079C14.3291 10.2781 14.2912 10.6509 14.7082 10.7255Z" fill="white"/>
<path d="M6.4859 7.93491C6.21335 8.23258 5.69097 8.90235 5.46385 9.20002C5.31244 8.87755 4.97932 8.01677 4.85819 7.15351C4.73706 6.29026 4.83296 4.95816 4.89604 4.40002C5.06008 4.41243 5.53956 4.54886 6.14522 4.99537C6.75088 5.44188 7.63413 6.27289 8.00005 6.63258C7.60889 6.94266 6.75845 7.63723 6.4859 7.93491Z" fill="#FF8C30"/>
<path fill-rule="evenodd" clip-rule="evenodd" d="M4.80005 5.10881C5.39534 5.35722 6.17893 5.73696 6.50732 6.08017C6.84043 6.42833 7.13348 6.8892 7.30746 7.20002C7.56865 6.98346 7.82819 6.77542 8.00005 6.64022C7.63006 6.2793 6.73697 5.44545 6.12457 4.99741C5.51217 4.54937 5.02735 4.41247 4.86149 4.40002C4.84168 4.57388 4.81869 4.82258 4.80005 5.10881Z" fill="#FF9A32"/>
<path d="M17.3142 7.93491C17.5867 8.23258 18.1091 8.90235 18.3363 9.20002C18.4877 8.87755 18.8208 8.01677 18.9419 7.15351C19.063 6.29026 18.9671 4.95816 18.9041 4.40002C18.74 4.41243 18.2605 4.54886 17.6549 4.99537C17.0492 5.44188 16.1659 6.27289 15.8 6.63258C16.1912 6.94266 17.0417 7.63723 17.3142 7.93491Z" fill="#FF8C30"/>
<path fill-rule="evenodd" clip-rule="evenodd" d="M19 5.10881C18.4047 5.35722 17.6212 5.73696 17.2928 6.08017C16.9596 6.42833 16.6666 6.8892 16.4927 7.20002C16.2315 6.98346 15.9719 6.77542 15.8 6.64022C16.17 6.2793 17.0631 5.44545 17.6755 4.99741C18.2879 4.54937 18.7727 4.41247 18.9386 4.40002C18.9584 4.57388 18.9814 4.82258 19 5.10881Z" fill="#FF9A32"/>
</svg>
