<?xml version="1.0" encoding="utf-8"?>
<!-- Generator: Adobe Illustrator 24.2.3, SVG Export Plug-In . SVG Version: 6.00 Build 0)  -->
<svg version="1.1" id="Layer_1" xmlns="http://www.w3.org/2000/svg" xmlns:xlink="http://www.w3.org/1999/xlink" x="0px" y="0px"
	 viewBox="0 0 50 50" style="enable-background:new 0 0 50 50;" xml:space="preserve">
<style type="text/css">
	.st0{fill:#EFF4F4;}
	.st1{fill:url(#SVGID_1_);}
	.st2{fill:url(#SVGID_2_);}
	.st3{fill:url(#SVGID_3_);}
</style>
<circle class="st0" cx="25" cy="25" r="24"/>
<g>
	
		<linearGradient id="SVGID_1_" gradientUnits="userSpaceOnUse" x1="25" y1="13.254" x2="25" y2="38.9321" gradientTransform="matrix(1 0 0 -1 0 50)">
		<stop  offset="0" style="stop-color:#05AAC5"/>
		<stop  offset="1" style="stop-color:#71E0EC"/>
	</linearGradient>
	<path class="st1" d="M25,36.7c-5.5,0-10-4.5-10-10c0-5.4,9-14.8,9.4-15.2l0.5-0.5l0.5,0.5c0.4,0.4,9.6,9.8,9.6,15.2
		C35,32.3,30.5,36.7,25,36.7L25,36.7z M24.9,13c-0.8,0.9-2.5,2.7-4.1,4.9c-2.9,3.9-4.5,6.9-4.5,8.9c0,4.8,3.9,8.6,8.6,8.6
		s8.6-3.9,8.6-8.6c0-2-1.6-5-4.5-8.9C27.4,15.7,25.7,13.9,24.9,13z"/>
	
		<linearGradient id="SVGID_2_" gradientUnits="userSpaceOnUse" x1="25.0128" y1="10.0602" x2="25.0128" y2="41.0113" gradientTransform="matrix(1 0 0 -1 0 50)">
		<stop  offset="0" style="stop-color:#05AAC5"/>
		<stop  offset="1" style="stop-color:#71E0EC"/>
	</linearGradient>
	<path class="st2" d="M25,39.9c-7.3,0-13.2-5.9-13.2-13.2c0-7.1,9.9-17,10.3-17.4c0.3-0.3,0.7-0.3,0.9,0c0.3,0.3,0.3,0.7,0,0.9
		c-0.1,0.1-9.9,9.9-9.9,16.5c0,6.5,5.3,11.8,11.8,11.8s11.8-5.3,11.8-11.8c0-2.7-1.7-6.4-5-10.7c-2.5-3.3-5.1-5.9-5.1-5.9
		c-0.3-0.3-0.3-0.7,0-0.9c0.3-0.3,0.7-0.3,0.9,0c0.4,0.4,10.5,10.5,10.5,17.6C38.2,34,32.3,39.9,25,39.9L25,39.9z"/>
	
		<linearGradient id="SVGID_3_" gradientUnits="userSpaceOnUse" x1="25" y1="6.8664" x2="25" y2="43.1336" gradientTransform="matrix(1 0 0 -1 0 50)">
		<stop  offset="0" style="stop-color:#05AAC5"/>
		<stop  offset="1" style="stop-color:#71E0EC"/>
	</linearGradient>
	<path class="st3" d="M25,43.1c-8.8,0-16-7.2-16-16c0-3.7,1.8-8.2,5.5-13.4c2.7-3.8,5.3-6.6,5.4-6.7c0.3-0.3,0.7-0.3,0.9,0
		C21,7.3,21,7.7,20.8,8c0,0-2.7,2.8-5.3,6.5c-3.4,4.9-5.2,9.2-5.2,12.6c0,8.1,6.6,14.7,14.7,14.7s14.7-6.6,14.7-14.7
		c0-3.3-1.8-7.7-5.3-12.6C31.8,10.8,29.2,8,29.1,8c-0.3-0.3-0.3-0.7,0-0.9s0.7-0.3,0.9,0C30.5,7.5,41,18.4,41,27.1
		C41,35.9,33.8,43.1,25,43.1z"/>
</g>
</svg>
