<svg width="24" height="24" viewBox="0 0 24 24" fill="none" xmlns="http://www.w3.org/2000/svg">
<circle cx="12" cy="12" r="12" fill="#EDF0F4"/>
<path d="M7.2534 5.80005L19.6 14.1365L16.5465 18.6L4.19995 10.198L7.2534 5.80005Z" fill="url(#paint0_linear_655_5220)"/>
<path d="M19.734 14.1533C18.6787 15.6939 15.117 15.0911 11.7531 12.6798C8.32332 10.3354 6.4765 7.18731 7.46586 5.64675C8.52119 4.10618 12.0829 4.70901 15.4468 7.12033C18.8766 9.39769 20.7234 12.6128 19.734 14.1533Z" fill="url(#paint1_linear_655_5220)"/>
<path d="M16.5328 18.5589C15.4741 20.0894 11.901 19.4905 8.52635 17.0949C5.15172 14.6993 3.23281 11.6383 4.29152 10.0412C5.35022 8.51073 8.92337 9.10963 12.298 11.5052C15.6726 13.9008 17.5254 17.0284 16.5328 18.5589Z" fill="url(#paint2_linear_655_5220)"/>
<path d="M19.5509 14.0839L16.4958 18.581C15.4332 20.1021 11.8468 19.4407 8.4596 17.126C7.79545 16.6631 7.19771 16.2002 6.59998 15.6711C7.06488 15.605 7.66262 15.3404 8.26035 14.6791C9.32299 13.5548 9.85431 13.2903 10.3192 13.3564C10.7841 13.3564 11.3154 13.8193 12.1788 14.9436C13.0422 16.0679 14.2377 16.3986 14.9683 15.8034C15.0347 15.7372 15.1011 15.7372 15.1675 15.6711C15.7653 15.2082 15.9645 15.0098 17.0936 12.8935C17.3592 12.3644 18.289 11.5047 19.5509 11.9015C19.883 12.7612 19.883 13.4887 19.5509 14.0839Z" fill="#0E0F23"/>
<path fill-rule="evenodd" clip-rule="evenodd" d="M18.9898 13.9177C18.0658 15.2457 14.832 14.5817 11.7301 12.3905C8.56219 10.1992 6.71425 7.41037 7.63822 6.08234C8.56219 4.75432 11.7961 5.41833 14.898 7.60958C17.9998 9.80082 19.8478 12.5897 18.9898 13.9177ZM16.0859 11.9257C15.6239 12.5897 14.04 12.2577 12.456 11.1953C10.9381 10.1329 10.0141 8.73843 10.4761 8.07442C10.9381 7.4104 12.522 7.74241 14.106 8.80483C15.6239 9.86725 16.5479 11.2617 16.0859 11.9257Z" fill="white"/>
<path d="M6.97755 7.07836C6.97755 7.02295 6.91755 6.96754 6.85755 7.02295C6.79755 7.07836 6.73755 7.07836 6.73755 7.13377C6.79755 7.3 6.85755 7.41082 6.85755 7.52164C6.85755 7.57705 6.91755 7.63246 6.97755 7.57705C7.03755 7.57705 7.09755 7.52164 7.03755 7.46623C7.03755 7.35541 7.03755 7.24459 6.97755 7.07836Z" fill="white"/>
<path d="M7.39567 8.09446C7.39567 8.02767 7.33043 7.96087 7.26519 8.02767C7.19995 8.09446 7.19995 8.09446 7.19995 8.16125C7.91758 9.83107 9.41807 11.6345 11.3752 12.9703C11.4405 13.0371 11.5057 12.9703 11.571 12.9703C11.6362 12.9035 11.571 12.8367 11.571 12.7699C9.54855 11.4341 8.1133 9.69748 7.39567 8.09446Z" fill="white"/>
<path d="M15.323 14.7201C15.2615 14.7201 15.2 14.7201 15.2 14.7801C15.2 14.8401 15.2 14.9001 15.2615 14.9001C15.4461 14.9601 15.6923 15.0201 15.8769 15.0801C15.9384 15.0801 16 15.0801 16 15.0201C16 14.9601 16 14.9001 15.9384 14.9001C15.7538 14.8401 15.5076 14.7801 15.323 14.7201Z" fill="white"/>
<path d="M16.5286 14.9376C16.4643 14.9376 16.4 14.9976 16.4 15.0576C16.4 15.1176 16.4643 15.1776 16.5286 15.1776C17.0429 15.2376 17.6215 15.2976 18.0715 15.2376C18.1357 15.2376 18.2 15.1776 18.2 15.1176C18.2 15.0576 18.1357 14.9976 18.0715 14.9976C17.5572 15.0576 17.0429 14.9976 16.5286 14.9376Z" fill="white"/>
<defs>
<linearGradient id="paint0_linear_655_5220" x1="4.67087" y1="5.63231" x2="6.39246" y2="14.0944" gradientUnits="userSpaceOnUse">
<stop stop-color="#03B8FF"/>
<stop offset="1" stop-color="#FA52A0"/>
</linearGradient>
<linearGradient id="paint1_linear_655_5220" x1="6.54973" y1="4.81408" x2="8.1232" y2="13.4546" gradientUnits="userSpaceOnUse">
<stop stop-color="#03B8FF"/>
<stop offset="1" stop-color="#FA52A0"/>
</linearGradient>
<linearGradient id="paint2_linear_655_5220" x1="2.38815" y1="6.00704" x2="3.96722" y2="14.5942" gradientUnits="userSpaceOnUse">
<stop stop-color="#03B8FF"/>
<stop offset="1" stop-color="#FA52A0"/>
</linearGradient>
</defs>
</svg>
