<svg width="24" height="24" viewBox="0 0 24 24" fill="none" xmlns="http://www.w3.org/2000/svg">
<path fill-rule="evenodd" clip-rule="evenodd" d="M12 24C5.4 24 0 18.6001 0 11.9402C0.06 5.34038 5.4 -0.0595036 12.06 0.000495204C18.66 0.060494 24 5.40038 24 12.1202C23.94 18.6601 18.6 24 12 24Z" fill="#FC070C"/>
<path fill-rule="evenodd" clip-rule="evenodd" d="M20.55 9.46123C20.2225 9.15884 19.8428 8.79018 19.4471 8.40602C18.8914 7.86642 18.3042 7.29624 17.7859 6.83624L17.7334 6.79949C17.646 6.72934 17.5475 6.67433 17.442 6.63674L17.042 6.56212L17.042 6.56211L17.042 6.5621L17.0419 6.56209C14.2818 6.04709 5.33583 4.37787 5.1518 4.40025C5.09737 4.40787 5.04534 4.4276 4.99955 4.458L4.94967 4.49737C4.88826 4.55974 4.84162 4.63509 4.81317 4.71787L4.80005 4.752V4.93837V4.96725C5.40741 6.65847 6.98515 10.4353 8.44195 13.9227L8.44199 13.9228L8.44202 13.9229L8.44204 13.9229L8.44206 13.923C9.67371 16.8714 10.8189 19.6128 11.2182 20.7119L11.2183 20.7124C11.2708 20.8753 11.3706 21.1845 11.5568 21.2002H11.5988C11.6985 21.2002 12.1238 20.6384 12.1238 20.6384C12.1238 20.6384 19.7258 11.4195 20.4949 10.4377C20.5944 10.3168 20.6823 10.1867 20.7574 10.0492C20.7963 9.83041 20.7176 9.60719 20.55 9.46123ZM14.0741 10.5348L17.3186 7.84421L19.2217 9.59771L14.0741 10.5348ZM7.22813 5.78096L12.8141 10.3589L16.266 7.44783L7.22813 5.78096ZM13.3181 11.5586L19.0353 10.6372L12.4991 18.5122L13.3181 11.5586ZM12.3468 11.2252L6.46948 6.23772L11.4963 18.5174L12.3468 11.2252Z" fill="white"/>
</svg>
