<svg width="24" height="24" viewBox="0 0 24 24" fill="none" xmlns="http://www.w3.org/2000/svg">
<path d="M23.6383 14.9029C22.0356 21.3315 15.5244 25.2438 9.09503 23.6407C2.66833 22.0381 -1.24401 15.5265 0.359382 9.09837C1.96137 2.66903 8.47253 -1.24361 14.8999 0.359081C21.3289 1.96177 25.241 8.47405 23.6381 14.903L23.6382 14.9029H23.6383Z" fill="#50AF95"/>
<path fill-rule="evenodd" clip-rule="evenodd" d="M13.5186 13.3604C13.4337 13.3668 12.9953 13.3929 12.0174 13.3929C11.2396 13.3929 10.6874 13.3696 10.4936 13.3604C7.48779 13.2282 5.24419 12.7049 5.24419 12.0784C5.24419 11.452 7.48779 10.9294 10.4936 10.7951V12.8393C10.6902 12.8534 11.253 12.8866 12.0308 12.8866C12.9642 12.8866 13.4316 12.8478 13.5157 12.84V10.7965C16.5152 10.9301 18.7539 11.4534 18.7539 12.0784C18.7539 12.7035 16.5159 13.2268 13.5157 13.3597L13.5186 13.3604ZM13.5185 10.585V8.75578H17.7045V5.96631H6.30763V8.75578H10.4929V10.5843C7.09109 10.7406 4.53284 11.4144 4.53284 12.2219C4.53284 13.0294 7.09109 13.7026 10.4929 13.8596V19.7213H13.5178V13.8574C16.9119 13.7012 19.4659 13.028 19.4659 12.2212C19.4659 11.4144 16.914 10.7413 13.5178 10.5843L13.5185 10.585Z" fill="white"/>
</svg>
