<?xml version="1.0" encoding="UTF-8"?>
<svg xmlns="http://www.w3.org/2000/svg" xmlns:xlink="http://www.w3.org/1999/xlink" width="39pt" height="39pt" viewBox="0 0 39 39" version="1.1">
<defs>
<clipPath id="clip1">
  <path d="M 38.132812 19.394531 C 38.132812 29.683594 29.789062 38.027344 19.5 38.027344 C 9.210938 38.027344 0.867188 29.683594 0.867188 19.394531 C 0.867188 9.101562 9.210938 0.761719 19.5 0.761719 C 29.789062 0.761719 38.132812 9.101562 38.132812 19.394531 Z M 38.132812 19.394531 "/>
</clipPath>
<clipPath id="clip2">
  <path d="M 11 28 L 28 28 L 28 33 L 11 33 Z M 11 28 "/>
</clipPath>
<clipPath id="clip3">
  <path d="M 38.132812 19.394531 C 38.132812 29.683594 29.789062 38.027344 19.5 38.027344 C 9.210938 38.027344 0.867188 29.683594 0.867188 19.394531 C 0.867188 9.101562 9.210938 0.761719 19.5 0.761719 C 29.789062 0.761719 38.132812 9.101562 38.132812 19.394531 Z M 38.132812 19.394531 "/>
</clipPath>
<clipPath id="clip4">
  <path d="M 10 7 L 15 7 L 15 12 L 10 12 Z M 10 7 "/>
</clipPath>
<clipPath id="clip5">
  <path d="M 38.132812 19.394531 C 38.132812 29.683594 29.789062 38.027344 19.5 38.027344 C 9.210938 38.027344 0.867188 29.683594 0.867188 19.394531 C 0.867188 9.101562 9.210938 0.761719 19.5 0.761719 C 29.789062 0.761719 38.132812 9.101562 38.132812 19.394531 Z M 38.132812 19.394531 "/>
</clipPath>
<clipPath id="clip6">
  <path d="M 23 7 L 28 7 L 28 12 L 23 12 Z M 23 7 "/>
</clipPath>
<clipPath id="clip7">
  <path d="M 38.132812 19.394531 C 38.132812 29.683594 29.789062 38.027344 19.5 38.027344 C 9.210938 38.027344 0.867188 29.683594 0.867188 19.394531 C 0.867188 9.101562 9.210938 0.761719 19.5 0.761719 C 29.789062 0.761719 38.132812 9.101562 38.132812 19.394531 Z M 38.132812 19.394531 "/>
</clipPath>
</defs>
<g id="surface1">
<g clip-path="url(#clip1)" clip-rule="nonzero">
<rect x="0" y="0" width="39" height="39" style="fill:rgb(16.470588%,25.882353%,52.941176%);fill-opacity:1;stroke:none;"/>
</g>
<g clip-path="url(#clip2)" clip-rule="nonzero">
<g clip-path="url(#clip3)" clip-rule="nonzero">
<path style=" stroke:none;fill-rule:nonzero;fill:rgb(100%,100%,100%);fill-opacity:1;" d="M 12.636719 28.742188 C 12.246094 28.449219 11.691406 28.503906 11.367188 28.871094 C 11.074219 29.199219 11.074219 29.695312 11.367188 30.023438 C 13.660156 31.777344 16.464844 32.726562 19.351562 32.730469 C 22.519531 32.765625 26.074219 31.089844 27.453125 30.242188 C 27.664062 30.117188 27.808594 29.902344 27.855469 29.660156 C 27.898438 29.417969 27.839844 29.171875 27.6875 28.976562 C 27.367188 28.558594 26.78125 28.453125 26.335938 28.730469 C 25.203125 29.4375 22.214844 30.859375 19.324219 30.859375 C 16.933594 30.847656 14.601562 30.105469 12.644531 28.730469 Z M 12.636719 28.742188 "/>
</g>
</g>
<g clip-path="url(#clip4)" clip-rule="nonzero">
<g clip-path="url(#clip5)" clip-rule="nonzero">
<path style=" stroke:none;fill-rule:nonzero;fill:rgb(100%,100%,100%);fill-opacity:1;" d="M 14.625 9.753906 C 14.625 10.90625 13.6875 11.839844 12.535156 11.839844 C 11.382812 11.839844 10.449219 10.90625 10.449219 9.753906 C 10.449219 8.601562 11.382812 7.664062 12.535156 7.664062 C 13.6875 7.664062 14.625 8.601562 14.625 9.753906 Z M 14.625 9.753906 "/>
</g>
</g>
<g clip-path="url(#clip6)" clip-rule="nonzero">
<g clip-path="url(#clip7)" clip-rule="nonzero">
<path style=" stroke:none;fill-rule:nonzero;fill:rgb(100%,100%,100%);fill-opacity:1;" d="M 26.746094 7.765625 C 27.054688 7.574219 27.460938 7.621094 27.714844 7.882812 C 27.800781 7.996094 27.835938 8.136719 27.8125 8.277344 C 27.789062 8.414062 27.710938 8.539062 27.589844 8.613281 L 25.355469 9.726562 L 27.554688 10.789062 C 27.707031 10.855469 27.816406 10.988281 27.859375 11.152344 C 27.898438 11.3125 27.859375 11.480469 27.757812 11.609375 C 27.539062 11.824219 27.207031 11.878906 26.929688 11.742188 L 24.121094 10.355469 C 23.878906 10.238281 23.71875 10 23.707031 9.730469 C 23.707031 9.441406 23.867188 9.175781 24.121094 9.039062 L 26.78125 7.746094 Z M 26.746094 7.765625 "/>
</g>
</g>
</g>
</svg>
