<svg width="24" height="24" viewBox="0 0 24 24" fill="none" xmlns="http://www.w3.org/2000/svg">
<circle cx="12" cy="12" r="12" fill="black"/>
<path d="M18.122 6.67222L16.086 7.70951L6.25471 12.7171C6.22146 12.4635 6.20474 12.2081 6.20463 11.9524C6.20737 9.87624 7.30902 7.95672 9.10024 6.90705C10.8915 5.85738 13.1045 5.83445 14.9171 6.84677L16.0824 6.25302L16.2563 6.16431C14.0796 4.58445 11.2007 4.35899 8.80465 5.58073C6.40857 6.80247 4.90024 9.26492 4.90052 11.9545C4.90052 12.1367 4.90743 12.3182 4.92126 12.4989C4.96087 13.0223 4.68215 13.5182 4.21448 13.7565L3.59998 14.0698V15.5313L5.40914 14.6092L5.99503 14.3102L6.57233 14.0162L16.9366 8.73535L18.1012 8.1423L20.5084 6.91545V5.45467L18.122 6.67222Z" fill="white"/>
<path d="M20.5084 8.37769L7.16108 15.1737L5.99646 15.7682L3.59998 16.9893V18.4494L5.98001 17.2368L8.01594 16.1995L17.8573 11.1848C17.8905 11.44 17.9073 11.6971 17.9073 11.9545C17.9061 14.0331 16.8031 15.9553 15.0093 17.0054C13.2154 18.0554 10.9993 18.076 9.18629 17.0594L9.11475 17.0973L7.85141 17.7411C10.0276 19.321 12.9059 19.547 15.302 18.3261C17.6981 17.1052 19.207 14.6437 19.2079 11.9545C19.2079 11.7707 19.2007 11.5868 19.1871 11.4051C19.1476 10.8819 19.426 10.3862 19.8932 10.1475L20.5084 9.83418V8.37769Z" fill="white"/>
</svg>
