<svg width="24" height="24" viewBox="0 0 24 24" fill="none" xmlns="http://www.w3.org/2000/svg">
<path d="M23.9972 11.999C23.9972 18.6256 18.6257 23.9979 11.9986 23.9979C5.37151 23.9979 0 18.6256 0 11.999C0 5.37234 5.37163 0 11.9986 0C18.6255 0 23.9972 5.37183 23.9972 11.999Z" fill="white"/>
<path d="M11.9974 0C5.37272 0 -0.00830154 5.37994 0.00013197 11.9986C0.00179312 13.3228 0.21295 14.5966 0.609261 15.788H4.19912V5.69422L11.9974 13.4925L19.7954 5.69422V15.7882H23.386C23.7829 14.5968 23.993 13.323 23.9953 11.9988C24.0066 5.37323 18.6229 0.00159726 11.9974 0.00159726V0Z" fill="#F26822"/>
<path d="M10.2026 15.2852L6.79935 11.8818V18.2332H4.19742L1.74219 18.2337C3.8482 21.6888 7.65427 24 11.996 24C16.3377 24 20.144 21.6882 22.2504 18.2332H17.1919V11.8818L13.7884 15.2852L11.9956 17.0779L10.2027 15.2852H10.2026Z" fill="#4D4D4D"/>
</svg>
